<svg width="70" height="70" viewBox="0 0 70 70" fill="none" xmlns="http://www.w3.org/2000/svg">
<g clip-path="url(#clip0)">
<path d="M36.843 25.3901C37.9106 26.4577 37.9106 28.1886 36.843 29.2562C35.7749 30.3243 34.043 30.3243 32.9754 29.2562C31.9073 28.1886 31.9073 26.4577 32.9754 25.3901C34.043 24.3226 35.7749 24.3226 36.843 25.3901Z" fill="#FFE781"/>
<path d="M37.6441 42.7908C37.6441 44.3011 36.4195 45.5257 34.9092 45.5257C33.3984 45.5257 32.1743 44.3011 32.1743 42.7908C32.1743 41.2799 33.3984 40.0559 34.9092 40.0559C36.4195 40.0559 37.6441 41.2799 37.6441 42.7908Z" fill="#FFE781"/>
<path d="M24.3086 28.2901C24.8432 27.7555 24.8432 26.8898 24.3086 26.3568C23.7756 25.8222 22.9099 25.8222 22.3753 26.3568C21.8407 26.8898 21.8407 27.7555 22.3753 28.2901C22.9099 28.823 23.7756 28.823 24.3086 28.2901Z" fill="white"/>
<path d="M37.8437 30.2233C39.4426 28.6244 39.4426 26.0224 37.8437 24.4235C36.241 22.8208 33.6455 22.8202 32.0428 24.4235C30.4395 26.0262 30.4395 28.6201 32.0428 30.2233C33.6417 31.8223 36.2442 31.8228 37.8437 30.2233ZM33.976 26.3568C34.5106 25.8227 35.3758 25.8227 35.9104 26.3568C36.4429 26.8898 36.4429 27.7565 35.9104 28.2895C35.3769 28.8225 34.509 28.823 33.976 28.2895C33.4425 27.7565 33.4404 26.8924 33.976 26.3568Z" fill="white"/>
<path d="M32.0428 39.8898C30.4395 41.493 30.4395 44.088 32.0428 45.6912C33.6455 47.2939 36.2404 47.2945 37.8437 45.6912C39.4432 44.0917 39.4432 41.4893 37.8437 39.8898C36.241 38.2876 33.6455 38.2871 32.0428 39.8898ZM35.9104 43.7579C35.3758 44.292 34.5101 44.292 33.976 43.7579C33.4425 43.2244 33.4404 42.3592 33.976 41.8236C34.5106 41.289 35.3758 41.2895 35.9104 41.8236C36.4434 42.3566 36.4434 43.2244 35.9104 43.7579Z" fill="white"/>
<path d="M23.9349 37.2585C24.0828 37.9997 24.8038 38.4788 25.5435 38.3309L44.8779 34.4632C45.6181 34.3153 46.0983 33.5948 45.9503 32.8546C45.8024 32.1139 45.082 31.6343 44.3418 31.7823L25.0073 35.6499C24.2665 35.7978 23.7864 36.5183 23.9349 37.2585Z" fill="white"/>
<path d="M41.5634 7.73474C41.2008 7.73474 40.8531 7.8784 40.5968 8.13475L26.2429 22.4886C25.7089 23.0226 25.7089 23.8884 26.2429 24.4224C26.777 24.9565 27.6427 24.9565 28.1762 24.4224L41.5634 11.0352L58.964 28.4364L28.2707 59.1297L10.8696 41.7291L20.4425 32.1561C20.9766 31.6226 20.9766 30.7569 20.4425 30.2228C19.9085 29.6893 19.0428 29.6893 18.5087 30.2228L7.96963 40.7624C7.43558 41.2959 7.43558 42.1616 7.96963 42.6957L27.3041 62.0302C27.8382 62.5642 28.7033 62.5642 29.2374 62.0302L61.8645 29.403C62.3986 28.869 62.3986 28.0033 61.8645 27.4692L42.5301 8.13475C42.2737 7.8784 41.926 7.73474 41.5634 7.73474Z" fill="white"/>
<path d="M67.6651 0.401034L61.7969 6.26872C58.3731 3.68335 53.6451 3.64116 50.25 6.16191L45.4435 1.216C45.4387 1.2112 45.4345 1.20693 45.4297 1.20212C43.835 -0.392575 41.2416 -0.409665 39.6277 1.20426L1.20174 39.7957C-0.400964 41.3984 -0.401498 43.994 1.20174 45.5972L6.62455 51.0195C5.41331 54.486 6.28703 58.4162 8.93542 61.0635C11.5833 63.7124 15.5134 64.5856 18.98 63.3754L24.4028 68.7977C26.0055 70.4004 28.6021 70.3999 30.2016 68.7998L68.7973 30.3696C70.4006 28.7664 70.4006 26.1725 68.7973 24.5698C68.7925 24.565 68.7882 24.5607 68.7834 24.5559L63.8381 19.7505C66.3497 16.3784 66.3401 11.6483 63.7307 8.20254L69.5984 2.33485C70.1325 1.8008 70.1325 0.935091 69.5984 0.401034C69.0643 -0.133023 68.1992 -0.133023 67.6651 0.401034ZM60.9958 18.8671C60.7373 19.1261 60.5931 19.4775 60.5953 19.8439C60.5979 20.2097 60.7475 20.5595 61.0097 20.8143L66.8694 26.5089C67.3997 27.0451 67.3938 27.906 66.8656 28.4337L28.2704 66.8639C27.7369 67.3974 26.869 67.3974 26.3361 66.8639L20.2724 60.8007C20.0107 60.5385 19.6603 60.4002 19.3057 60.4002C19.1092 60.4002 18.9111 60.4424 18.7252 60.5294C16.0961 61.7631 12.9387 61.2007 10.8692 59.1297C8.79816 57.0602 8.2358 53.9034 9.46947 51.2742C9.71407 50.7525 9.60619 50.134 9.19871 49.7265L3.13556 43.6634C2.60204 43.1299 2.60204 42.2626 3.13716 41.7269L41.5636 3.13541C42.0955 2.60402 42.9554 2.60081 43.4905 3.12953L49.1846 8.9892C49.6952 9.51472 50.5694 9.56598 51.1323 9.00362C53.4725 6.66232 57.1372 6.41238 59.8369 8.22871L57.8315 10.2341C56.3068 9.50777 54.4237 9.77427 53.1633 11.0346C51.5644 12.6341 51.5644 15.2366 53.1633 16.8356C54.766 18.4383 57.3616 18.4388 58.9648 16.8356C60.254 15.5464 60.4799 13.6553 59.7669 12.1658L61.7718 10.1609C63.5742 12.8291 63.3665 16.497 60.9958 18.8671ZM57.031 12.9679C57.5645 13.5014 57.5666 14.3666 57.031 14.9023C56.4969 15.4363 55.6312 15.4363 55.0971 14.9023C54.5636 14.3688 54.5636 13.5009 55.0966 12.9679C55.6301 12.4355 56.498 12.4344 57.031 12.9679Z" fill="white"/>
</g>
<defs>
<clipPath id="clip0">
<rect width="70" height="69.9999" fill="white"/>
</clipPath>
</defs>
</svg>
