<svg width="150" height="120" viewBox="0 0 150 120" fill="none" xmlns="http://www.w3.org/2000/svg">
<g clip-path="url(#clip0)">
<path d="M5.80674 31.7664C-0.63438 45.3318 -1.41512 61.1906 2.00062 75.8295C5.26998 89.8341 12.7846 103.448 25.0813 110.865C30.5465 114.183 36.7436 116.135 42.9408 117.502C48.9427 118.868 55.0911 119.697 61.2882 119.551C78.4645 119.161 94.5673 111.012 108.425 100.911C122.332 90.81 134.776 78.4157 143.217 63.4353C145.901 58.702 148.146 53.676 149.219 48.3572C151.708 36.2069 147.707 23.2271 139.899 13.6142C136.239 9.12492 131.653 5.17241 126.041 3.65973C123.455 2.92778 120.771 2.78139 118.087 2.58621C107.791 1.95185 97.4463 1.3175 87.1503 0.683149C55.4326 -1.2687 21.4704 -1.41509 5.80674 31.7664Z" fill="#F75C1A"/>
</g>
<defs>
<clipPath id="clip0">
<rect width="150" height="119.6" fill="white"/>
</clipPath>
</defs>
</svg>
