<svg width="30" height="32" viewBox="0 0 30 32" fill="none" xmlns="http://www.w3.org/2000/svg">
<path d="M26.4095 24.4533C24.927 23.913 22.9819 23.496 20.734 23.2331C20.9512 23.0115 21.1656 22.787 21.3761 22.559C23.3882 20.38 24.728 18.2494 25.4717 16.0458C27.07 11.3128 25.5001 5.45002 21.8204 2.40868C19.9484 0.861724 17.5657 0.00976562 15.111 0.00976562C12.6563 0.00976562 10.2733 0.861724 8.40158 2.40868C6.65895 3.84914 5.31703 5.9658 4.62303 8.36913C3.9374 10.7441 3.92178 13.2547 4.57884 15.4389C5.45758 18.3607 7.34495 20.9342 9.56523 23.2343C7.32515 23.4972 5.38616 23.9128 3.90674 24.4514C1.88853 25.1855 0.865234 26.105 0.865234 27.1846C0.865234 28.5024 2.36675 29.5708 5.32808 30.3598C7.96068 31.0614 11.4511 31.4478 15.1554 31.4478C18.8596 31.4478 22.3496 31.0614 24.9826 30.3598C27.9438 29.5708 29.4453 28.5024 29.4453 27.1846C29.4453 26.106 28.4241 25.1871 26.4095 24.4533ZM5.80325 8.7151C6.42831 6.54913 7.62796 4.64949 9.1809 3.36579C10.8336 1.99978 12.9396 1.2476 15.111 1.2476C17.2823 1.2476 19.3883 1.99997 21.0409 3.36598C22.6479 4.694 23.8613 6.69342 24.4574 8.99582C25.0445 11.2621 24.9916 13.6246 24.3086 15.6474C22.769 20.2071 18.7193 23.6065 15.111 26.6032C11.2873 23.4237 7.13031 19.6537 5.75469 15.08C5.16581 13.1226 5.18295 10.8623 5.80325 8.7151C6.42831 6.54913 5.18295 10.8623 5.80325 8.7151ZM24.6693 29.1583C22.1365 29.8345 18.7581 30.2081 15.1567 30.21C11.5554 30.2117 8.17665 29.8418 5.64327 29.1681C2.84193 28.423 2.09422 27.5752 2.09383 27.1915C2.09345 26.3689 4.82909 24.9115 10.6963 24.3624C11.92 25.5311 13.2051 26.6268 14.452 27.6604C14.963 28.0841 15.2605 28.0831 15.7709 27.6597C16.9843 26.6507 18.3067 25.5509 19.5809 24.3549C25.4698 24.896 28.2161 26.3545 28.2167 27.178C28.2167 27.5614 27.4699 28.4103 24.6693 29.1583Z" fill="#F75C1A"/>
<path d="M18.9002 17.5321C19.5816 17.1314 18.9636 16.0617 18.281 16.4627C17.3229 17.0259 16.2261 17.3235 15.1098 17.3235C11.6335 17.3235 8.80571 14.4743 8.80571 10.9722C8.80571 7.46997 11.6335 4.6207 15.1098 4.6207C18.5858 4.6207 21.4138 7.46997 21.4138 10.9722C21.4138 11.6874 21.2968 12.3889 21.0664 13.0574C20.8076 13.808 21.968 14.2152 22.2272 13.4636C22.503 12.664 22.6426 11.8257 22.6426 10.972C22.6426 6.78725 19.2634 3.38268 15.1098 3.38268C10.9563 3.38268 7.57692 6.78725 7.57692 10.972C7.57692 15.157 10.9563 18.5614 15.1098 18.5614C16.4434 18.5614 17.7542 18.2056 18.9002 17.5321Z" fill="#F75C1A"/>
<path d="M20.4691 14.8183C20.1351 14.8183 19.8542 15.1004 19.8542 15.4373C19.8542 15.7739 20.1353 16.0565 20.4691 16.0561C20.7936 16.0561 21.0679 15.7902 21.0824 15.4642C21.0976 15.1178 20.8138 14.8183 20.4691 14.8183Z" fill="#F75C1A"/>
</svg>
