<svg width="70" height="70" viewBox="0 0 70 70" fill="none" xmlns="http://www.w3.org/2000/svg">
<g clip-path="url(#clip0)">
<path d="M63.8653 70.0001H43.9689C43.2138 70.0001 42.6018 69.3881 42.6018 68.6329C42.6018 67.8778 43.2138 67.2657 43.9689 67.2657H63.8653C65.7403 67.2657 67.2656 65.7405 67.2656 63.8654C67.2656 61.9898 65.7403 60.4645 63.8653 60.4645H40.2989C36.2491 60.4645 32.9551 57.1699 32.9551 53.1207C32.9551 49.0715 36.2491 45.7769 40.2989 45.7769H57.1842C59.7851 45.7769 61.901 43.6609 61.901 41.0601C61.901 38.4592 59.7851 36.3433 57.1842 36.3433H38.5627C37.8075 36.3433 37.1955 35.7312 37.1955 34.9761C37.1955 34.2215 37.8075 33.6089 38.5627 33.6089H57.1842C61.2927 33.6089 64.6354 36.9516 64.6354 41.0601C64.6354 45.1686 61.2927 48.5112 57.1842 48.5112H40.2989C37.7568 48.5112 35.6895 50.5791 35.6895 53.1207C35.6895 55.6623 37.7568 57.7301 40.2989 57.7301H63.8653C67.248 57.7301 70 60.4821 70 63.8654C70 67.2481 67.248 70.0001 63.8653 70.0001Z" fill="url(#paint0_linear)"/>
<path d="M31.6029 67.2657H18.7844C19.8397 66.3946 21.0424 65.3153 22.2499 64.0517C26.8359 59.2527 29.2599 54.0814 29.2599 49.097C29.2599 41.0301 22.6969 34.467 14.63 34.467C6.56303 34.467 0 41.0301 0 49.097C0 54.0173 2.42302 59.1677 7.00737 63.9914C10.3276 67.4852 13.6121 69.6059 13.886 69.78C14.0681 69.898 14.2796 69.9739 14.5071 69.9942C14.5093 69.9947 14.5114 69.9947 14.5135 69.9947C14.52 69.9952 14.5258 69.9958 14.5322 69.9963C14.5381 69.9968 14.544 69.9968 14.5499 69.9974C14.5552 69.9979 14.5611 69.9979 14.567 69.9984C14.5744 69.9984 14.5819 69.999 14.5899 69.999C14.5926 69.999 14.5958 69.999 14.599 69.9995H14.63H31.6029C32.358 69.9995 32.97 69.3875 32.97 68.6323C32.97 67.8777 32.358 67.2657 31.6029 67.2657ZM2.73438 49.097C2.73438 42.5377 8.07068 37.2014 14.63 37.2014C21.1893 37.2014 26.5256 42.5377 26.5256 49.097C26.5256 58.0302 17.3216 65.1081 14.6358 66.9826C11.9511 65.0814 2.73438 57.9106 2.73438 49.097Z" fill="url(#paint1_linear)"/>
<path d="M14.6301 55.7905C10.8421 55.7905 7.76001 52.709 7.76001 48.9209C7.76001 45.1328 10.8421 42.0508 14.6301 42.0508C18.4182 42.0508 21.5002 45.1328 21.5002 48.9209C21.5002 52.709 18.4182 55.7905 14.6301 55.7905ZM14.6301 44.7852C12.3497 44.7852 10.4944 46.6405 10.4944 48.9209C10.4944 51.2013 12.3497 53.0561 14.6301 53.0561C16.9106 53.0561 18.7659 51.2013 18.7659 48.9209C18.7659 46.6405 16.9106 44.7852 14.6301 44.7852Z" fill="url(#paint2_linear)"/>
<path d="M66.0715 0H41.7676C39.6015 0 37.8396 1.76239 37.8396 3.92853V25.5125C37.8396 27.6786 39.6015 29.441 41.7676 29.441H66.0715C68.2376 29.441 70 27.6786 70 25.5125V3.92853C70 1.76239 68.2376 0 66.0715 0ZM57.3599 2.73438V12.2337L54.5609 10.7468C54.3601 10.6406 54.1401 10.5872 53.9195 10.5872C53.6995 10.5872 53.4789 10.6406 53.2787 10.7468L50.4791 12.2337V2.73438H57.3599ZM67.2656 25.5125C67.2656 26.171 66.73 26.7066 66.0715 26.7066H41.7676C41.1091 26.7066 40.574 26.171 40.574 25.5125V3.92853C40.574 3.27003 41.1096 2.73438 41.7676 2.73438H47.7448V14.5077C47.7448 14.9873 47.9963 15.4321 48.4075 15.6794C48.8188 15.9267 49.3298 15.94 49.7534 15.7152L53.9201 13.5026L58.0863 15.7152C58.2871 15.822 58.5076 15.8749 58.7277 15.8749C58.9717 15.8749 59.2158 15.8097 59.4321 15.6794C59.8433 15.4321 60.0948 14.9873 60.0948 14.5077V2.73438H66.072C66.7305 2.73438 67.2662 3.27003 67.2662 3.92853V25.5125H67.2656Z" fill="url(#paint3_linear)"/>
<path d="M37.7601 70.0001C37.1822 70.0001 36.6551 69.6203 36.4677 69.0756C36.2834 68.5394 36.4602 67.9231 36.9035 67.5685C37.3393 67.2198 37.9598 67.1712 38.4437 67.45C38.9419 67.7373 39.2122 68.3237 39.1027 68.8892C38.9799 69.5248 38.409 70.0001 37.7601 70.0001Z" fill="url(#paint4_linear)"/>
</g>
<defs>
<linearGradient id="paint0_linear" x1="25.5" y1="28.0001" x2="61.5" y2="62.0001" gradientUnits="userSpaceOnUse">
<stop stop-color="#F75C1A"/>
<stop offset="0.427083" stop-color="#EB6F1E"/>
<stop offset="0.630208" stop-color="#D19726"/>
<stop offset="1" stop-color="#A2E034"/>
</linearGradient>
<linearGradient id="paint1_linear" x1="16.485" y1="34.467" x2="16.485" y2="69.9995" gradientUnits="userSpaceOnUse">
<stop stop-color="#F75C1A"/>
<stop offset="0.427083" stop-color="#EB6F1E"/>
<stop offset="0.630208" stop-color="#D19726"/>
<stop offset="1" stop-color="#A2E034"/>
</linearGradient>
<linearGradient id="paint2_linear" x1="-4.99991" y1="28.5001" x2="34.0001" y2="68.0001" gradientUnits="userSpaceOnUse">
<stop stop-color="#F75C1A"/>
<stop offset="0.427083" stop-color="#EB6F1E"/>
<stop offset="0.630208" stop-color="#D19726"/>
<stop offset="1" stop-color="#A2E034"/>
</linearGradient>
<linearGradient id="paint3_linear" x1="17.5" y1="-3" x2="53.9198" y2="29.441" gradientUnits="userSpaceOnUse">
<stop stop-color="#F75C1A"/>
<stop offset="0.427083" stop-color="#EB6F1E"/>
<stop offset="0.630208" stop-color="#D19726"/>
<stop offset="1" stop-color="#A2E034"/>
</linearGradient>
<linearGradient id="paint4_linear" x1="37.7612" y1="67.2698" x2="37.7612" y2="70.0001" gradientUnits="userSpaceOnUse">
<stop stop-color="#F75C1A"/>
<stop offset="0.427083" stop-color="#EB6F1E"/>
<stop offset="0.630208" stop-color="#D19726"/>
<stop offset="1" stop-color="#A2E034"/>
</linearGradient>
<clipPath id="clip0">
<rect width="70" height="70" fill="white"/>
</clipPath>
</defs>
</svg>
