<svg width="30" height="19" viewBox="0 0 30 19" fill="none" xmlns="http://www.w3.org/2000/svg">
<path d="M14.3857 17.3521C14.222 17.1885 14.0068 17.1024 13.7743 17.1024C13.5504 17.1024 13.3265 17.1971 13.1629 17.3521C12.9993 17.5158 12.9131 17.731 12.9131 17.9635C12.9131 18.1874 13.0079 18.4113 13.1629 18.5749C13.3265 18.7386 13.5418 18.8247 13.7743 18.8247C13.9982 18.8247 14.222 18.7299 14.3857 18.5749C14.5493 18.4113 14.6354 18.196 14.6354 17.9635C14.6354 17.7396 14.5407 17.5158 14.3857 17.3521Z" fill="#F75C1A"/>
<path d="M28.7148 0.706593C28.7062 0.697982 28.6889 0.689375 28.6889 0.689375C28.267 0.396592 27.7589 0.224365 27.2164 0.224365H3.09631C2.57964 0.224365 2.10602 0.379367 1.70129 0.637704C1.66685 0.654927 1.64101 0.680762 1.60657 0.697984C0.943503 1.1716 0.512939 1.938 0.512939 2.80774V16.2413C0.512939 17.6621 1.67546 18.8247 3.09631 18.8247H9.46864C9.94226 18.8247 10.3298 18.4372 10.3298 17.9635C10.3298 17.4899 9.94226 17.1024 9.46864 17.1024H3.94022L11.0101 8.84422L14.6526 11.4707C14.799 11.5826 14.9798 11.6343 15.1607 11.6343C15.3329 11.6343 15.5137 11.5826 15.6601 11.4707L19.3027 8.84422L26.3639 17.0938H17.5632C17.0896 17.0938 16.7021 17.4813 16.7021 17.9549C16.7021 18.4286 17.0896 18.8161 17.5632 18.8161H27.2078C28.6287 18.8161 29.7912 17.6535 29.7912 16.2327V2.80774C29.7912 1.94662 29.3692 1.18021 28.7148 0.706593ZM2.25241 16.4221C2.2438 16.3618 2.23519 16.3016 2.23519 16.2413V2.80774C2.23519 2.71302 2.25241 2.62691 2.27825 2.54079L9.60642 7.8281L2.25241 16.4221ZM15.1521 9.71396L4.388 1.94662H25.942L15.1521 9.71396ZM28.0689 16.2413C28.0689 16.3016 28.0603 16.3618 28.0517 16.4221L20.7063 7.83671L28.0345 2.55801C28.0603 2.63551 28.0689 2.71302 28.0689 2.79913V16.2413Z" fill="#F75C1A"/>
</svg>
