<svg width="70" height="70" viewBox="0 0 70 70" fill="none" xmlns="http://www.w3.org/2000/svg">
<g clip-path="url(#clip0)">
<path d="M43.9355 8.72212C36.2357 4.83137 26.9606 6.31901 20.8559 12.4238C13.7609 19.5187 13.0508 30.8316 19.2042 38.7386C19.4217 39.0181 19.7469 39.1644 20.0755 39.1644C20.3123 39.1644 20.5509 39.0885 20.7523 38.9317C21.2331 38.5575 21.3195 37.8645 20.9455 37.3836C15.4741 30.3533 16.1064 20.2935 22.4162 13.9838C27.8453 8.55437 36.0933 7.2312 42.9407 10.6911C43.4843 10.9662 44.1479 10.7477 44.4227 10.204C44.6974 9.66029 44.4795 8.99679 43.9355 8.72212Z" fill="white"/>
<path d="M52.7444 17.5327C52.4696 16.989 51.8064 16.7708 51.2622 17.0453C50.7185 17.32 50.5002 17.9833 50.7748 18.5273C54.2323 25.3737 52.9085 33.6206 47.4806 39.0483C41.1707 45.3579 31.1111 45.9901 24.0807 40.519C23.5997 40.145 22.9068 40.2314 22.5326 40.7121C22.1584 41.1929 22.245 41.8859 22.7258 42.2601C26.3276 45.0631 30.6357 46.4418 34.9302 46.4418C40.0636 46.4418 45.1776 44.4716 49.0408 40.6083C55.1441 34.5052 56.6324 25.2318 52.7444 17.5327Z" fill="white"/>
<path d="M49.8943 13.3312C49.621 13.0219 49.3339 12.7165 49.0409 12.4237C48.7479 12.1307 48.4426 11.8436 48.1333 11.5703C47.6768 11.1667 46.9796 11.2099 46.5764 11.6664C46.1727 12.1227 46.2156 12.8199 46.6721 13.2233C46.9476 13.4667 47.2197 13.7226 47.4808 13.9836C47.7416 14.2448 47.9976 14.5167 48.2411 14.7922C48.459 15.0388 48.7628 15.1647 49.0681 15.1647C49.3277 15.1647 49.5883 15.0736 49.7982 14.8882C50.2548 14.4848 50.2977 13.7877 49.8943 13.3312Z" fill="white"/>
<path d="M60.9857 28.4936C61.7212 27.2868 61.7212 25.7878 60.9854 24.5812L59.5341 22.2014C59.343 21.8877 59.2691 21.5153 59.3262 21.1527L59.7588 18.4043C59.9793 17.0036 59.4039 15.6155 58.2573 14.7814L56.0082 13.1454C55.7108 12.929 55.4994 12.6133 55.4129 12.2559L54.7579 9.54899C54.4254 8.17401 53.3646 7.11334 51.9897 6.78057L49.2827 6.12541C48.9253 6.03887 48.6093 5.8275 48.3932 5.53014L46.7569 3.28042C45.923 2.1339 44.5347 1.55817 43.1344 1.77884L40.385 2.21142C40.0224 2.26843 39.6499 2.1946 39.3365 2.00347L36.9562 0.551785C35.7496 -0.184037 34.2506 -0.183901 33.0439 0.551785L30.6639 2.00306C30.3505 2.19433 29.9782 2.26788 29.6152 2.21101L26.8666 1.77843C25.4664 1.55804 24.078 2.13349 23.244 3.28001L21.608 5.52918C21.3916 5.82654 21.0758 6.03791 20.7183 6.12445L18.0114 6.77947C16.6366 7.11197 15.5757 8.17278 15.2429 9.54762L14.5878 12.2547C14.5012 12.612 14.29 12.928 13.9925 13.1442L11.7428 14.7804C10.5963 15.6143 10.021 17.0022 10.2412 18.4029L10.6738 21.1525C10.7308 21.5152 10.657 21.8876 10.4658 22.201L9.01429 24.5814C8.27874 25.7881 8.27874 27.2871 9.01443 28.4936L10.4657 30.8736C10.6568 31.1872 10.7308 31.5597 10.6736 31.9222L10.2411 34.6708C10.0205 36.0714 10.596 37.4596 11.7425 38.2936L13.9917 39.9296C14.289 40.1458 14.5004 40.4617 14.587 40.8191L15.242 43.526C15.5745 44.901 16.6353 45.9616 18.0101 46.2944L19.1405 46.568L11.4905 63.6324C11.328 63.9952 11.373 64.4171 11.6085 64.7373C11.844 65.0575 12.2332 65.2263 12.628 65.179L18.7834 64.443L22.3294 69.5278C22.5369 69.8251 22.8755 69.9999 23.2339 69.9999C23.2682 69.9999 23.3029 69.9982 23.3374 69.9951C23.733 69.9579 24.0783 69.7106 24.2408 69.3481L32.0536 51.9193L33.0436 52.5229C33.647 52.8908 34.3233 53.0747 34.9998 53.0747C35.6763 53.0747 36.3526 52.8907 36.956 52.5229L37.9816 51.8976L45.8043 69.3481C45.9668 69.7108 46.3119 69.9579 46.7077 69.9951C46.7423 69.9984 46.7769 70 46.8112 70C47.1696 70 47.5083 69.8253 47.7157 69.5279L51.2617 64.4432L57.4171 65.1791C57.8116 65.226 58.2011 65.0576 58.4366 64.7374C58.672 64.4172 58.7173 63.9953 58.5546 63.6326L50.9006 46.5587L51.9885 46.2955C53.3632 45.963 54.4241 44.9022 54.7569 43.5274L55.4121 40.8203C55.4986 40.4629 55.71 40.147 56.0073 39.9308L58.2571 38.2946C59.4036 37.4607 59.9789 36.0728 59.7586 34.6721L59.3261 31.9225C59.2691 31.5598 59.3429 31.1874 59.534 30.874L60.9857 28.4936ZM23.0246 66.6679L20.2144 62.6382C19.9815 62.3041 19.5831 62.1253 19.1787 62.1739L14.3007 62.7572L21.2705 47.2091C21.3979 47.3027 21.5122 47.415 21.6064 47.5447L23.2426 49.7944C23.3981 50.0081 23.5728 50.2018 23.7633 50.3744L20.0947 58.558C19.8456 59.114 20.0941 59.7666 20.65 60.0158C20.7966 60.0816 20.9499 60.1126 21.1005 60.1126C21.5219 60.1126 21.9244 59.8698 22.1077 59.4605L25.7633 51.306C26.123 51.3553 26.4934 51.3545 26.8651 51.296L29.6146 50.8634C29.7792 50.8376 29.9456 50.8399 30.1076 50.8667L23.0246 66.6679ZM55.7447 62.7569L50.8666 62.1739C50.4618 62.1254 50.0638 62.3041 49.8308 62.6382L47.0207 66.6679L39.9347 50.8606C40.0833 50.8403 40.2349 50.8403 40.3849 50.8638L43.1333 51.2964C43.5201 51.3573 43.9055 51.3553 44.2789 51.2997L47.9372 59.4607C48.1208 59.8702 48.5231 60.1129 48.9444 60.1129C49.0952 60.1129 49.2485 60.0818 49.3949 60.0161C49.9508 59.767 50.1995 59.1142 49.9503 58.5583L46.2678 50.3435C46.4454 50.1786 46.6096 49.9961 46.756 49.7948L48.392 47.5457C48.495 47.4039 48.6214 47.2823 48.7633 47.184L55.7447 62.7569ZM59.1018 27.3449L57.6503 29.7253C57.1875 30.4846 57.0084 31.3867 57.1466 32.2653L57.5792 35.0147C57.6701 35.5929 57.4325 36.1659 56.9593 36.5101L54.7095 38.1465C53.9894 38.6704 53.4772 39.4356 53.2678 40.3012L52.6126 43.0082C52.4752 43.5758 52.0374 44.0137 51.4698 44.1511L48.7627 44.8061C47.897 45.0155 47.1317 45.5277 46.6078 46.2479L44.9718 48.4971C44.6275 48.9706 44.0547 49.2079 43.4762 49.1168L40.7276 48.6843C39.8489 48.546 38.9467 48.7249 38.1873 49.1879L35.8074 50.6392C35.3093 50.9427 34.6903 50.9427 34.1925 50.6392L31.812 49.1878C31.2201 48.8267 30.5414 48.6386 29.8546 48.6386C29.6605 48.6386 29.4654 48.6536 29.2719 48.6841L26.5224 49.1167C25.9441 49.2078 25.3712 48.97 25.027 48.4968L23.3906 46.2471C22.8667 45.527 22.1014 45.0149 21.2359 44.8054L18.5288 44.1503C17.9613 44.0129 17.5234 43.5751 17.386 43.0074L16.731 40.3005C16.5215 39.4348 16.0095 38.6693 15.2891 38.1454L13.0401 36.5093C12.5668 36.165 12.3293 35.5919 12.4204 35.0137L12.853 32.2651C12.9912 31.3864 12.8123 30.4844 12.3493 29.7249L10.898 27.3447C10.5944 26.8467 10.5944 26.2278 10.898 25.7298L12.3496 23.3494C12.8125 22.5901 12.9914 21.688 12.8532 20.8094L12.4206 18.06C12.3297 17.4818 12.5673 16.9088 13.0405 16.5646L15.2904 14.9282C16.0105 14.4043 16.5226 13.6391 16.7321 12.7735L17.3872 10.0665C17.5246 9.49895 17.9624 9.06104 18.5301 8.92364L21.2371 8.26862C22.1028 8.05916 22.8682 7.54701 23.3919 6.82678L25.0279 4.57761C25.3722 4.10429 25.945 3.86654 26.5235 3.95773L29.2721 4.39031C30.1509 4.5288 31.0531 4.3497 31.8125 3.88664L34.1923 2.43536C34.6904 2.13185 35.3095 2.13185 35.8073 2.43536L38.1877 3.88677C38.947 4.34998 39.8493 4.52894 40.7278 4.39058L43.4773 3.958C44.0554 3.86736 44.6285 4.1047 44.9728 4.57789L46.6091 6.8276C47.133 7.5477 47.8983 8.05985 48.7638 8.2693L51.4709 8.92446C52.0384 9.06186 52.4763 9.49963 52.6137 10.0673L53.2687 12.7742C53.4782 13.6399 53.9902 14.4054 54.7106 14.9293L56.9597 16.5653C57.433 16.9095 57.6705 17.4827 57.5795 18.0608L57.1469 20.8094C57.0087 21.6881 57.1875 22.5902 57.6506 23.3497L59.1018 25.7298C59.4056 26.2279 59.4056 26.8468 59.1018 27.3449Z" fill="white"/>
<path d="M47.9085 23.1051C47.6654 22.3567 47.029 21.8342 46.2475 21.7415L39.6097 20.9544L36.8099 14.8847C36.4803 14.1702 35.7867 13.7263 34.9998 13.7263C34.2129 13.7263 33.5192 14.1702 33.1896 14.8847L30.3899 20.9545L23.752 21.7416C22.9705 21.8343 22.334 22.3568 22.091 23.1052C21.8479 23.8532 22.0558 24.6502 22.6333 25.1843L27.5408 29.7227L26.2381 36.2789C26.0849 37.0509 26.3851 37.8176 27.0218 38.28C27.373 38.5351 27.7806 38.6643 28.1907 38.6643C28.5242 38.6643 28.8592 38.579 29.1669 38.4067L34.9996 35.142L40.8323 38.4067C41.5191 38.7911 42.3409 38.7426 42.9776 38.2801C43.6143 37.8176 43.9145 37.0507 43.7611 36.2789L42.4585 29.7229L47.366 25.1845C47.9438 24.6503 48.1516 23.8535 47.9085 23.1051ZM40.5074 28.5223C40.2257 28.7828 40.0997 29.1709 40.1743 29.5472L41.5073 36.2561L35.5384 32.9151C35.3711 32.8214 35.1854 32.7746 34.9996 32.7746C34.8138 32.7746 34.6283 32.8213 34.4608 32.9151L28.4919 36.2561L29.825 29.5472C29.8999 29.1708 29.7737 28.7828 29.4919 28.5223L24.4699 23.878L31.263 23.0726C31.6439 23.0274 31.974 22.7875 32.1348 22.4393L34.9998 16.228L37.8647 22.4393C38.0255 22.7875 38.3555 23.0274 38.7366 23.0726L45.5293 23.878L40.5074 28.5223Z" fill="white"/>
</g>
<defs>
<clipPath id="clip0">
<rect width="70" height="70" fill="white"/>
</clipPath>
</defs>
</svg>
