<svg width="30" height="30" viewBox="0 0 30 30" fill="none" xmlns="http://www.w3.org/2000/svg">
<path d="M10.6619 19.6944C10.4937 19.5262 10.2724 19.4377 10.0334 19.4377C9.80328 19.4377 9.57313 19.5351 9.40495 19.6944C9.23677 19.8626 9.14825 20.0839 9.14825 20.3229C9.14825 20.5619 9.24562 20.7832 9.40495 20.9513C9.57313 21.1195 9.79443 21.208 10.0334 21.208C10.2724 21.208 10.4937 21.1107 10.6619 20.9513C10.8301 20.7832 10.9186 20.5619 10.9186 20.3229C10.9186 20.0839 10.8301 19.8537 10.6619 19.6944Z" fill="#F75C1A"/>
<path d="M28.4273 20.6238L23.7625 15.959C22.4259 14.6224 20.2483 14.6224 18.9029 15.959L18.6019 16.2599C18.177 16.6848 17.4954 16.6848 17.0705 16.2599L13.7334 12.9317C13.5299 12.7281 13.4148 12.4537 13.4148 12.1704C13.4148 11.8872 13.5299 11.6128 13.7334 11.4092L14.0344 11.1082C15.371 9.77162 15.371 7.59409 14.0344 6.24862L9.36954 1.58376C8.03293 0.247146 5.8554 0.247146 4.50994 1.58376L3.39462 2.69908C0.0221067 6.07159 0.0221067 11.5685 3.39462 14.941L6.44847 17.9772C6.79368 18.3224 7.35134 18.3224 7.69656 17.9772C8.04178 17.632 8.04178 17.0743 7.69656 16.7291L4.65156 13.6841C1.96949 11.002 1.96949 6.62925 4.65156 3.94717L5.76688 2.83185C6.41306 2.18568 7.46642 2.18568 8.12144 2.83185L12.7863 7.49672C13.4325 8.1429 13.4325 9.19625 12.7863 9.85128L12.4853 10.1522C12.3703 10.2673 12.2729 10.3824 12.1844 10.5063L8.49322 6.82399C8.148 6.47877 7.59034 6.47877 7.24512 6.82399C6.8999 7.1692 6.8999 7.72686 7.24512 8.07208L11.671 12.498C11.7418 13.1353 12.0251 13.7283 12.4853 14.1886L15.8225 17.5257C16.9378 18.6411 18.7435 18.6411 19.8588 17.5257L20.1598 17.2248C20.806 16.5786 21.8593 16.5786 22.5144 17.2248L27.1792 21.8896C27.489 22.1995 27.6661 22.6243 27.6661 23.0669C27.6661 23.5095 27.489 23.9255 27.1792 24.2442L26.5419 24.8815L22.2931 20.6327C21.9479 20.2875 21.3902 20.2875 21.045 20.6327C20.6998 20.9779 20.6998 21.5356 21.045 21.8808L25.2319 26.0677C22.5409 28.015 18.7435 27.7849 16.3182 25.3595L14.0256 23.0669C13.6803 22.7217 13.1227 22.7217 12.7775 23.0669C12.4322 23.4121 12.4322 23.9698 12.7775 24.315L15.0701 26.6076C16.7607 28.2983 18.9737 29.1392 21.1955 29.1392C23.4172 29.1392 25.6302 28.2983 27.3209 26.6076L28.4362 25.4923C29.0824 24.8461 29.4453 23.9787 29.4453 23.0669C29.4453 22.1552 29.0735 21.2789 28.4273 20.6238Z" fill="#F75C1A"/>
</svg>
