<svg width="70" height="70" viewBox="0 0 70 70" fill="none" xmlns="http://www.w3.org/2000/svg">
<path d="M47.3627 28.3555L46.596 26.3069C45.9102 26.5639 45.2146 26.7991 44.5277 27.0069L45.1599 29.1003C45.8916 28.8794 46.6332 28.6289 47.3627 28.3555Z" fill="white"/>
<path d="M40.4687 33.1188V30.1788C41.2803 30.0486 42.0952 29.8889 42.9034 29.703L42.4102 27.5713C41.3558 27.8163 40.2872 28.0088 39.2339 28.1477L38.2812 28.2734V33.1198C38.2812 33.413 38.2878 33.705 38.3031 33.9959L40.4884 33.8844C40.4753 33.6295 40.4687 33.3758 40.4687 33.1188Z" fill="white"/>
<path d="M20.7812 14.2188C17.162 14.2188 14.2188 17.162 14.2188 20.7812C14.2188 24.4005 17.162 27.3438 20.7812 27.3438C24.4005 27.3438 27.3438 24.4005 27.3438 20.7812C27.3438 17.162 24.4005 14.2188 20.7812 14.2188ZM20.7812 25.1562C18.3684 25.1562 16.4062 23.1941 16.4062 20.7812C16.4062 18.3684 18.3684 16.4062 20.7812 16.4062C23.1941 16.4062 25.1562 18.3684 25.1562 20.7812C25.1562 23.1941 23.1941 25.1562 20.7812 25.1562Z" fill="white"/>
<path d="M49.7416 20.5494L49.2198 20.2661L48.6981 20.5494C44.5112 22.8178 39.772 24.033 34.9934 24.0614L33.9062 24.068V33.1187C33.9062 42.6092 39.9098 51.1602 48.8458 54.3955L49.2188 54.53L49.5917 54.3955C58.5277 51.1602 64.5312 42.6092 64.5312 33.1187V24.068L63.4441 24.0614C58.6688 24.033 53.9306 22.8178 49.7416 20.5494ZM62.3438 33.1187C62.3438 41.5592 57.0861 49.1772 49.2188 52.1992C41.3514 49.1761 36.0938 41.5581 36.0938 33.1187V26.2227C40.6634 26.0356 45.1686 24.8434 49.2198 22.7478C53.2722 24.8434 57.7762 26.0356 62.3438 26.2227V33.1187Z" fill="white"/>
<path d="M44.8438 34.5472L40.016 39.375L47.0313 46.3903L60.6091 32.8125L55.7813 27.9847L47.0313 36.7347L44.8438 34.5472ZM57.516 32.8125L47.0313 43.2972L43.1091 39.375L44.8438 37.6403L47.0313 39.8278L55.7813 31.0778L57.516 32.8125Z" fill="white"/>
<path d="M68.9062 19.6875H63.6245C58.7092 19.6875 53.9503 18.247 49.8192 15.4919L49.1772 15.1189L48.5745 15.5203C46.0841 17.1817 43.342 18.3586 40.4688 19.0302V16.6337L37.5867 15.9556C37.2236 14.688 36.7172 13.4673 36.0763 12.3112L37.6359 9.79234L31.7702 3.92656L29.2512 5.48625C28.0952 4.84531 26.8745 4.33891 25.6069 3.97578L24.9287 1.09375H16.6337L15.9556 3.97578C14.688 4.33891 13.4673 4.84531 12.3112 5.48625L9.79234 3.92656L3.92656 9.79234L5.48625 12.3112C4.84531 13.4673 4.33891 14.688 3.97578 15.9556L1.09375 16.6337V24.9287L3.97578 25.6069C4.33891 26.8745 4.84531 28.0952 5.48625 29.2512L3.92656 31.7702L9.79234 37.6359L12.3112 36.0763C13.4673 36.7172 14.688 37.2236 15.9556 37.5867L16.6337 40.4688H24.9287L25.6069 37.5867C26.8745 37.2236 28.0952 36.7172 29.2512 36.0763L29.7555 36.388C30.3417 41.1163 32.1595 45.5514 34.9453 49.2723L31.2659 62.7637L36.6669 61.413L40.7542 68.2259L44.4216 57.2239C45.8478 57.9447 47.343 58.555 48.9103 59.0166L49.2188 59.1084L49.5272 59.0177C51.0945 58.5561 52.5897 57.9458 54.0159 57.225L57.6833 68.227L61.7706 61.4141L67.1716 62.7648L63.4922 49.2734C66.9123 44.7038 68.9062 39.0666 68.9062 33.1188V19.6875ZM29.2753 33.5191L28.7033 33.8669C27.3744 34.6719 25.9394 35.268 24.4344 35.6355L23.7825 35.7952L23.1963 38.2812H18.3662L17.7811 35.7952L17.1292 35.6355C15.6242 35.268 14.1892 34.6719 12.8603 33.8669L12.2883 33.5191L10.1161 34.8633L6.70031 31.4475L8.04453 29.2753L7.69672 28.7033C6.89172 27.3744 6.29563 25.9394 5.92812 24.4344L5.76844 23.7825L3.28125 23.1963V18.3662L5.76734 17.7811L5.92703 17.1292C6.29453 15.6242 6.89062 14.1892 7.69562 12.8603L8.04344 12.2883L6.69922 10.115L10.115 6.69922L12.2872 8.04344L12.8592 7.69562C14.1881 6.89062 15.6231 6.29453 17.1281 5.92703L17.78 5.76734L18.3662 3.28125H23.1963L23.7814 5.76734L24.4333 5.92703C25.9383 6.29453 27.3733 6.89062 28.7022 7.69562L29.2742 8.04344L31.4464 6.69922L34.8622 10.115L33.518 12.2872L33.8658 12.8592C34.6708 14.1881 35.2669 15.6231 35.6344 17.1281L35.7941 17.78L38.2812 18.3662V19.4403C37.1383 19.6 35.9811 19.6875 34.813 19.6875H33.8505C33.2916 12.9609 27.65 7.65625 20.7812 7.65625C13.5439 7.65625 7.65625 13.5439 7.65625 20.7812C7.65625 28.0186 13.5439 33.9062 20.7812 33.9062C24.0406 33.9062 27.1469 32.6823 29.5312 30.5506V33.1198C29.5312 33.3123 29.5509 33.5016 29.5553 33.693L29.2753 33.5191ZM29.5312 19.6875V27.3208C27.4673 30.0748 24.2277 31.7188 20.7812 31.7188C14.7503 31.7188 9.84375 26.8122 9.84375 20.7812C9.84375 14.7503 14.7503 9.84375 20.7812 9.84375C26.4425 9.84375 31.1128 14.1684 31.663 19.6875H29.5312ZM40.1833 63.023L37.7081 58.8984L34.3591 59.7352L36.6548 51.3155C38.3523 53.1759 40.308 54.8034 42.478 56.1378L40.1833 63.023ZM64.0784 59.7352L60.7294 58.8984L58.2542 63.023L55.9595 56.1378C58.1295 54.8034 60.0852 53.1759 61.7827 51.3155L64.0784 59.7352ZM66.7188 33.1188C66.7188 43.9403 59.5394 53.643 49.2188 56.8269C38.8981 53.643 31.7188 43.9403 31.7188 33.1188V21.875H34.813C39.9241 21.875 44.8787 20.4433 49.2177 17.71C53.5358 20.4378 58.5025 21.875 63.6245 21.875H66.7188V33.1188Z" fill="white"/>
</svg>
