<svg width="94" height="98" viewBox="0 0 94 98" fill="none" xmlns="http://www.w3.org/2000/svg">
<path d="M19.1979 2.74371C13.635 6.08143 11.527 11.4686 7.48657 22.0674C4.32452 30.3824 1.27958 38.4632 0.459792 50.1745C-0.242886 60.3047 -0.887007 69.908 4.55875 80.0383C6.31544 83.3175 11.0585 92.0424 20.9546 95.8485C29.6209 99.1863 37.4675 96.844 46.7194 94.0918C49.6473 93.2135 61.4757 89.4659 74.241 78.8672C84.6055 70.2594 91.5737 64.4037 92.9791 54.859C94.6186 43.6747 87.6504 34.3057 82.4389 27.3374C75.4121 17.8513 67.3899 13.0497 61.9441 9.77049C55.7957 6.08143 47.8906 1.39691 36.7648 0.401448C30.9092 -0.125561 24.8778 -0.711126 19.1979 2.74371Z" fill="#FED200"/>
</svg>
