<svg width="91" height="96" viewBox="0 0 91 96" fill="none" xmlns="http://www.w3.org/2000/svg">
<path d="M18.7401 2.67828C13.3098 5.9364 11.2521 11.1951 7.30804 21.5411C4.22139 29.6578 1.24907 37.5459 0.448828 48.9779C-0.237094 58.8666 -0.865855 68.2409 4.45003 78.1296C6.16484 81.3306 10.7948 89.8474 20.4549 93.5628C28.9145 96.8209 36.574 94.5345 45.6053 91.848C48.4633 90.9906 60.0096 87.3324 72.4705 76.9864C82.5879 68.5839 89.3899 62.8678 90.7618 53.5508C92.3623 42.6332 85.5602 33.4876 80.473 26.6855C73.6137 17.4256 65.7828 12.7385 60.4669 9.53749C54.4651 5.9364 46.7485 1.3636 35.8881 0.391874C30.1721 -0.122567 24.2846 -0.694167 18.7401 2.67828Z" fill="#F75C1A"/>
</svg>
